<svg width="947" height="300" viewBox="0 0 947 300" fill="none" xmlns="http://www.w3.org/2000/svg">
<path d="M14.9953 80H49.3953V220H14.9953V80ZM133.858 164C133.858 158.533 132.791 154.333 130.658 151.4C128.658 148.467 125.258 147 120.458 147C117.258 147 114.458 147.667 112.058 149C109.658 150.333 107.791 152.267 106.458 154.8C105.124 157.333 104.458 160.4 104.458 164V220H74.0578V128H104.458V141.8C107.124 136.733 110.724 132.8 115.258 130C119.924 127.2 125.658 125.8 132.458 125.8C143.924 125.8 152.258 128.867 157.458 135C162.658 141.133 165.258 149.733 165.258 160.8V220H133.858V164ZM178.897 128H241.697V153H178.897V128ZM238.297 93C236.964 91.2667 235.497 90 233.897 89.2C232.43 88.4 230.83 88 229.097 88C227.097 88 225.364 88.4667 223.897 89.4C222.564 90.3333 221.497 91.8 220.697 93.8C219.897 95.8 219.497 98.4 219.497 101.6V220H190.497V94C190.497 87.0667 191.764 81.1333 194.297 76.2C196.964 71.2667 200.83 67.4667 205.897 64.8C211.097 62.1333 217.497 60.8 225.097 60.8C229.764 60.8 233.697 61.4 236.897 62.6C240.097 63.6667 242.83 65 245.097 66.6C247.364 68.0667 249.164 69.4667 250.497 70.8L238.297 93ZM248.447 174C248.447 164.267 250.714 155.8 255.247 148.6C259.78 141.4 266.047 135.8 274.047 131.8C282.047 127.8 291.047 125.8 301.047 125.8C311.047 125.8 319.98 127.8 327.847 131.8C335.847 135.8 342.114 141.4 346.647 148.6C351.314 155.8 353.647 164.267 353.647 174C353.647 183.6 351.314 192 346.647 199.2C342.114 206.4 335.847 212 327.847 216C319.98 220 311.047 222 301.047 222C291.047 222 282.047 220 274.047 216C266.047 212 259.78 206.4 255.247 199.2C250.714 192 248.447 183.6 248.447 174ZM279.447 174C279.447 178.8 280.447 182.933 282.447 186.4C284.447 189.733 287.047 192.333 290.247 194.2C293.447 196.067 297.047 197 301.047 197C304.914 197 308.447 196.067 311.647 194.2C314.98 192.333 317.58 189.733 319.447 186.4C321.447 182.933 322.447 178.8 322.447 174C322.447 169.2 321.447 165.067 319.447 161.6C317.58 158.133 314.98 155.467 311.647 153.6C308.447 151.733 304.914 150.8 301.047 150.8C297.047 150.8 293.447 151.733 290.247 153.6C287.047 155.467 284.447 158.133 282.447 161.6C280.447 165.067 279.447 169.2 279.447 174ZM388.216 170.8C391.016 175.867 394.149 180.267 397.616 184C401.216 187.733 405.082 190.6 409.216 192.6C413.482 194.6 417.949 195.6 422.616 195.6C427.549 195.6 431.616 194.4 434.816 192C438.016 189.467 439.616 186.067 439.616 181.8C439.616 178.2 438.682 175.333 436.816 173.2C434.949 170.933 431.949 168.8 427.816 166.8C423.682 164.8 418.216 162.533 411.416 160C408.082 158.8 404.216 157.133 399.816 155C395.549 152.867 391.482 150.133 387.616 146.8C383.749 143.333 380.549 139.2 378.016 134.4C375.482 129.467 374.216 123.533 374.216 116.6C374.216 108.333 376.349 101.2 380.616 95.2C385.016 89.2 390.882 84.6667 398.216 81.6C405.682 78.4 413.949 76.8 423.016 76.8C432.349 76.8 440.416 78.3333 447.216 81.4C454.149 84.4667 459.882 88.3333 464.416 93C468.949 97.6667 472.416 102.4 474.816 107.2L449.016 121.6C447.016 118.267 444.682 115.4 442.016 113C439.482 110.467 436.616 108.533 433.416 107.2C430.349 105.733 427.016 105 423.416 105C418.616 105 414.949 106.067 412.416 108.2C409.882 110.2 408.616 112.733 408.616 115.8C408.616 119 409.816 121.8 412.216 124.2C414.749 126.6 418.282 128.8 422.816 130.8C427.482 132.8 433.082 134.933 439.616 137.2C444.549 139.067 449.149 141.267 453.416 143.8C457.682 146.2 461.416 149.133 464.616 152.6C467.949 156.067 470.549 160.067 472.416 164.6C474.282 169.133 475.216 174.333 475.216 180.2C475.216 187.267 473.749 193.6 470.816 199.2C468.016 204.667 464.149 209.267 459.216 213C454.416 216.733 448.882 219.533 442.616 221.4C436.482 223.4 430.149 224.4 423.616 224.4C414.549 224.4 406.082 222.8 398.216 219.6C390.482 216.267 383.749 211.8 378.016 206.2C372.282 200.6 367.816 194.467 364.616 187.8L388.216 170.8ZM487.416 174C487.416 164.267 489.682 155.8 494.216 148.6C498.749 141.4 505.016 135.8 513.016 131.8C521.016 127.8 530.016 125.8 540.016 125.8C550.016 125.8 558.949 127.8 566.816 131.8C574.816 135.8 581.082 141.4 585.616 148.6C590.282 155.8 592.616 164.267 592.616 174C592.616 183.6 590.282 192 585.616 199.2C581.082 206.4 574.816 212 566.816 216C558.949 220 550.016 222 540.016 222C530.016 222 521.016 220 513.016 216C505.016 212 498.749 206.4 494.216 199.2C489.682 192 487.416 183.6 487.416 174ZM518.416 174C518.416 178.8 519.416 182.933 521.416 186.4C523.416 189.733 526.016 192.333 529.216 194.2C532.416 196.067 536.016 197 540.016 197C543.882 197 547.416 196.067 550.616 194.2C553.949 192.333 556.549 189.733 558.416 186.4C560.416 182.933 561.416 178.8 561.416 174C561.416 169.2 560.416 165.067 558.416 161.6C556.549 158.133 553.949 155.467 550.616 153.6C547.416 151.733 543.882 150.8 540.016 150.8C536.016 150.8 532.416 151.733 529.216 153.6C526.016 155.467 523.416 158.133 521.416 161.6C519.416 165.067 518.416 169.2 518.416 174ZM634.184 174C634.184 178.933 635.251 183.2 637.384 186.8C639.518 190.267 642.451 193 646.184 195C650.051 197 654.184 198 658.584 198C662.318 198 665.851 197.467 669.184 196.4C672.651 195.2 675.784 193.6 678.584 191.6C681.518 189.6 683.918 187.133 685.784 184.2V213.6C682.584 216.133 678.584 218.2 673.784 219.8C668.984 221.267 663.118 222 656.184 222C646.051 222 636.918 220 628.784 216C620.784 212 614.451 206.4 609.784 199.2C605.251 192 602.984 183.6 602.984 174C602.984 164.267 605.251 155.867 609.784 148.8C614.451 141.6 620.784 136 628.784 132C636.918 128 646.051 126 656.184 126C663.118 126 668.984 126.8 673.784 128.4C678.584 129.867 682.584 131.733 685.784 134V163.6C683.918 160.667 681.451 158.2 678.384 156.2C675.451 154.2 672.251 152.667 668.784 151.6C665.318 150.533 661.918 150 658.584 150C654.184 150 650.051 151.067 646.184 153.2C642.451 155.333 639.518 158.2 637.384 161.8C635.251 165.4 634.184 169.467 634.184 174ZM703.813 93.4C703.813 88.6 705.546 84.7333 709.013 81.8C712.479 78.7333 716.613 77.2 721.413 77.2C726.346 77.2 730.479 78.7333 733.813 81.8C737.279 84.7333 739.013 88.6 739.013 93.4C739.013 98.2 737.279 102.133 733.813 105.2C730.479 108.267 726.346 109.8 721.413 109.8C716.613 109.8 712.479 108.267 709.013 105.2C705.546 102.133 703.813 98.2 703.813 93.4ZM706.813 128H736.013V220H706.813V128ZM782.286 191.2C782.286 193.6 782.886 195.667 784.086 197.4C785.286 199 786.886 200.267 788.886 201.2C790.886 202 793.086 202.4 795.486 202.4C798.953 202.4 802.153 201.667 805.086 200.2C808.019 198.733 810.419 196.533 812.286 193.6C814.153 190.667 815.086 187.067 815.086 182.8L818.286 194.8C818.286 200.667 816.686 205.667 813.486 209.8C810.286 213.8 806.153 216.867 801.086 219C796.019 221 790.553 222 784.686 222C778.819 222 773.353 220.933 768.286 218.8C763.353 216.533 759.353 213.2 756.286 208.8C753.353 204.4 751.886 199.067 751.886 192.8C751.886 184 755.019 177.067 761.286 172C767.553 166.8 776.419 164.2 787.886 164.2C793.486 164.2 798.486 164.733 802.886 165.8C807.419 166.867 811.286 168.2 814.486 169.8C817.686 171.4 820.086 173.067 821.686 174.8V188.2C818.486 185.8 814.753 184 810.486 182.8C806.353 181.467 801.953 180.8 797.286 180.8C793.686 180.8 790.819 181.2 788.686 182C786.553 182.8 784.953 184 783.886 185.6C782.819 187.067 782.286 188.933 782.286 191.2ZM768.886 156.2L758.686 136C763.886 133.467 770.153 131.067 777.486 128.8C784.819 126.533 792.819 125.4 801.486 125.4C809.619 125.4 816.886 126.6 823.286 129C829.686 131.267 834.753 134.6 838.486 139C842.219 143.4 844.086 148.8 844.086 155.2V220H815.086V162C815.086 159.733 814.686 157.8 813.886 156.2C813.219 154.467 812.153 153 810.686 151.8C809.219 150.6 807.353 149.733 805.086 149.2C802.953 148.667 800.486 148.4 797.686 148.4C793.553 148.4 789.486 148.867 785.486 149.8C781.619 150.733 778.219 151.867 775.286 153.2C772.353 154.4 770.219 155.4 768.886 156.2ZM864.698 64H895.098V220H864.698V64Z" fill="#1F1F1F"/>
<path d="M925.855 82.6H930.505L936.455 91.5H930.505L925.855 82.6ZM919.655 70.5H924.755V91.5H919.655V70.5ZM922.855 74.8V70.5H927.355C930.022 70.5 932.038 71.1333 933.405 72.4C934.805 73.6333 935.505 75.1833 935.505 77.05C935.505 79.05 934.805 80.7 933.405 82C932.038 83.2667 930.022 83.9 927.355 83.9H922.855V80H926.955C927.988 80 928.788 79.7833 929.355 79.35C929.955 78.9167 930.255 78.25 930.255 77.35C930.255 76.4833 929.955 75.8333 929.355 75.4C928.788 74.9667 927.988 74.75 926.955 74.75L922.855 74.8ZM911.755 81.5C911.755 83.7333 912.138 85.8 912.905 87.7C913.672 89.5667 914.738 91.2 916.105 92.6C917.505 94 919.122 95.0833 920.955 95.85C922.822 96.6167 924.838 97 927.005 97C929.172 97 931.172 96.6167 933.005 95.85C934.872 95.0833 936.488 94 937.855 92.6C939.255 91.2 940.338 89.5667 941.105 87.7C941.872 85.8 942.255 83.7333 942.255 81.5C942.255 79.2667 941.872 77.2167 941.105 75.35C940.338 73.45 939.255 71.8 937.855 70.4C936.488 69 934.872 67.9167 933.005 67.15C931.172 66.3833 929.172 66 927.005 66C924.838 66 922.822 66.3833 920.955 67.15C919.122 67.9167 917.505 69 916.105 70.4C914.738 71.8 913.672 73.45 912.905 75.35C912.138 77.2167 911.755 79.2667 911.755 81.5ZM909.005 81.5C909.005 78.9 909.455 76.5 910.355 74.3C911.288 72.1 912.555 70.2 914.155 68.6C915.788 66.9667 917.705 65.7167 919.905 64.85C922.105 63.95 924.472 63.5 927.005 63.5C929.572 63.5 931.938 63.95 934.105 64.85C936.305 65.7167 938.205 66.9667 939.805 68.6C941.438 70.2 942.705 72.1 943.605 74.3C944.538 76.5 945.005 78.9 945.005 81.5C945.005 84.1 944.538 86.5 943.605 88.7C942.705 90.9 941.438 92.8167 939.805 94.45C938.205 96.05 936.305 97.3 934.105 98.2C931.938 99.0667 929.572 99.5 927.005 99.5C924.472 99.5 922.105 99.0667 919.905 98.2C917.705 97.3 915.788 96.05 914.155 94.45C912.555 92.8167 911.288 90.9 910.355 88.7C909.455 86.5 909.005 84.1 909.005 81.5Z" fill="#1F1F1F"/>
</svg>
