<?xml version="1.0" standalone="no"?>
<!DOCTYPE svg PUBLIC "-//W3C//DTD SVG 20010904//EN"
 "http://www.w3.org/TR/2001/REC-SVG-20010904/DTD/svg10.dtd">
<svg version="1.0" xmlns="http://www.w3.org/2000/svg"
 width="330.000000pt" height="330.000000pt" viewBox="0 0 330.000000 330.000000"
 preserveAspectRatio="xMidYMid meet">
<metadata>
Created by potrace 1.14, written by Peter Selinger 2001-2017
</metadata>
<g transform="translate(0.000000,330.000000) scale(0.100000,-0.100000)"
fill="#000000" stroke="none">
<path d="M955 2740 c-47 -11 -106 -38 -141 -65 -25 -19 -39 -23 -68 -18 -31 5
-40 2 -52 -16 -8 -11 -24 -21 -35 -21 -24 0 -60 -18 -74 -37 -6 -8 -22 -19
-35 -26 -27 -14 -38 -50 -21 -71 8 -10 8 -22 1 -40 -8 -22 -6 -30 10 -46 11
-11 20 -26 20 -34 0 -8 5 -18 10 -21 14 -9 12 -21 -5 -39 -22 -22 -26 -85 -7
-121 19 -39 41 -54 73 -55 23 0 27 -6 38 -55 15 -65 77 -194 97 -202 34 -13 8
-19 -80 -20 -62 0 -103 -5 -122 -15 -97 -50 -124 -65 -163 -92 -114 -77 -191
-198 -226 -355 -2 -9 -18 -77 -35 -151 -38 -160 -32 -133 -64 -300 -48 -254
-62 -335 -61 -364 l0 -29 148 0 c82 1 151 3 154 7 3 3 7 16 8 28 6 44 17 123
21 143 2 11 11 58 19 105 8 47 17 99 20 115 3 17 8 38 11 47 3 10 7 29 10 42
6 37 45 160 52 168 4 4 7 -111 7 -255 0 -144 3 -274 8 -289 5 -15 21 -39 35
-54 56 -56 58 -56 545 -56 246 0 462 4 480 7 18 4 47 17 66 28 28 17 52 21
132 21 54 1 100 3 103 6 3 3 8 30 11 60 8 80 15 133 20 150 2 8 7 35 10 60 11
76 15 58 15 -65 0 -132 11 -163 72 -200 32 -19 51 -20 433 -20 370 0 403 1
428 18 38 25 67 75 67 116 0 54 7 32 15 -44 3 -38 8 -72 11 -75 3 -2 53 -5
111 -6 l105 -1 -7 41 c-3 23 -13 84 -21 136 -7 52 -16 106 -19 120 -3 14 -10
52 -15 85 -16 97 -20 119 -25 133 -6 16 -2 15 37 -7 58 -33 109 -18 140 43 65
127 -33 412 -158 459 -50 18 -85 13 -115 -19 -26 -28 -79 -33 -99 -9 -15 18
-105 46 -125 38 -17 -6 -20 12 -4 22 6 4 22 23 37 43 16 22 37 38 51 40 30 3
48 17 66 51 11 22 11 33 -1 66 -7 22 -18 41 -24 43 -6 2 -6 11 2 25 18 33 14
164 -6 224 -24 73 -83 156 -142 201 -37 28 -50 44 -51 67 -3 42 -51 105 -98
129 -88 45 -229 11 -270 -66 -14 -27 -33 -43 -65 -56 -105 -45 -187 -152 -216
-283 -3 -13 -8 -35 -11 -49 -3 -14 -6 -65 -7 -115 -1 -49 -7 -101 -13 -115
-21 -50 20 -121 71 -123 14 -1 26 -5 26 -8 0 -3 16 -24 36 -47 l36 -42 -44 -1
c-24 0 -54 -2 -67 -3 -17 -2 -42 13 -85 51 -70 63 -207 132 -311 158 -38 9
-117 19 -175 21 -58 2 -108 3 -112 4 -4 0 14 28 41 63 30 40 56 89 70 135 22
66 26 72 51 72 56 0 109 96 81 149 -17 32 -13 58 15 86 20 20 23 29 14 40 -9
11 -8 21 6 43 20 35 14 59 -20 72 -13 5 -27 18 -31 29 -7 23 -31 39 -65 44
-11 2 -27 13 -36 25 -18 26 -71 30 -80 7 -9 -21 -38 -13 -76 21 -48 42 -83 63
-142 84 -53 18 -166 23 -221 10z m793 -1318 c22 -12 30 -21 26 -32 -18 -43
-37 -119 -65 -255 -16 -82 -31 -154 -33 -160 -2 -5 -3 99 -4 233 l-1 243 22
-6 c12 -4 37 -14 55 -23z"/>
</g>
</svg>
